<svg width="100%" height="100%" id="svg" viewBox="0 0 1440 590" xmlns="http://www.w3.org/2000/svg" class="transition duration-300 ease-in-out delay-150"><defs><linearGradient id="gradient" x1="0%" y1="50%" x2="100%" y2="50%"><stop offset="5%" stop-color="#004134"></stop><stop offset="95%" stop-color="#abb8c3"></stop></linearGradient></defs><path d="M 0,600 C 0,600 0,200 0,200 C 93.29186602870814,189.4354066985646 186.58373205741628,178.8708133971292 288,167 C 389.4162679425837,155.1291866028708 498.9569377990431,141.95215311004785 589,134 C 679.0430622009569,126.04784688995217 749.5885167464115,123.32057416267943 845,151 C 940.4114832535885,178.67942583732057 1060.688995215311,236.76555023923447 1164,250 C 1267.311004784689,263.23444976076553 1353.6555023923445,231.61722488038276 1440,200 C 1440,200 1440,600 1440,600 Z" stroke="none" stroke-width="0" fill="url(#gradient)" fill-opacity="0.53" class="transition-all duration-300 ease-in-out delay-150 path-0"></path><defs><linearGradient id="gradient" x1="0%" y1="50%" x2="100%" y2="50%"><stop offset="5%" stop-color="#004134"></stop><stop offset="95%" stop-color="#abb8c3"></stop></linearGradient></defs><path d="M 0,600 C 0,600 0,400 0,400 C 79.16746411483251,383.27272727272725 158.33492822966502,366.54545454545456 250,375 C 341.665071770335,383.45454545454544 445.82775119617236,417.0909090909091 552,402 C 658.1722488038276,386.9090909090909 766.3540669856458,323.0909090909091 879,327 C 991.6459330143542,330.9090909090909 1108.755980861244,402.54545454545456 1203,426 C 1297.244019138756,449.45454545454544 1368.622009569378,424.72727272727275 1440,400 C 1440,400 1440,600 1440,600 Z" stroke="none" stroke-width="0" fill="url(#gradient)" fill-opacity="1" class="transition-all duration-300 ease-in-out delay-150 path-1"></path></svg>